<?xml version="1.0" encoding="UTF-8"?>
<svg viewBox="0 0 940 470" role="img" aria-label="S&amp;P 500 since 1990 with the thirteen drawdown phases shaded by group" xmlns="http://www.w3.org/2000/svg" width="940" height="470"><rect width="940" height="470" fill="#0c1c30"></rect><rect x="76.31304347826025" y="118" width="8.21739130435104" height="298" fill="#f5c542" opacity="0.1"></rect><rect x="70.67826086956438" y="118" width="5.634782608695872" height="298" fill="#f5c542" opacity="0.3"></rect><text x="77.49565217391232" y="110" fill="#f5c542" font-size="12" font-family="Inter,Segoe UI,Arial,sans-serif" transform="rotate(-90 77.49565217391232 110)">Gulf</text><rect x="261.321739130437" y="118" width="5.400000000000432" height="298" fill="#f5c542" opacity="0.1"></rect><rect x="258.50434782608636" y="118" width="2.817391304350622" height="298" fill="#f5c542" opacity="0.3"></rect><text x="263.91304347826167" y="110" fill="#f5c542" font-size="12" font-family="Inter,Segoe UI,Arial,sans-serif" transform="rotate(-90 263.91304347826167 110)">LTCM</text><rect x="357.8173913043478" y="118" width="108.93913043478506" height="298" fill="#4aa3ff" opacity="0.1"></rect><rect x="298.1826086956529" y="118" width="59.63478260869488" height="298" fill="#4aa3ff" opacity="0.3"></rect><text x="332.00000000000034" y="110" fill="#4aa3ff" font-size="12" font-family="Inter,Segoe UI,Arial,sans-serif" transform="rotate(-90 332.00000000000034 110)">Dot-com</text><rect x="508.3130434782629" y="118" width="94.38260869565192" height="298" fill="#4aa3ff" opacity="0.1"></rect><rect x="475.208695652174" y="118" width="33.10434782608888" height="298" fill="#4aa3ff" opacity="0.3"></rect><text x="495.76086956521846" y="110" fill="#4aa3ff" font-size="12" font-family="Inter,Segoe UI,Arial,sans-serif" transform="rotate(-90 495.76086956521846 110)">Financial crisis</text><rect x="539.3043478260875" y="118" width="7.982608695650356" height="298" fill="#f5c542" opacity="0.1"></rect><rect x="534.8434782608688" y="118" width="4.4608695652186725" height="298" fill="#f5c542" opacity="0.3"></rect><text x="541.0739130434781" y="110" fill="#f5c542" font-size="12" font-family="Inter,Segoe UI,Arial,sans-serif" transform="rotate(-90 541.0739130434781 110)">2010 slide</text><rect x="568.6521739130441" y="118" width="9.156521739132813" height="298" fill="#f5c542" opacity="0.1"></rect><rect x="563.0173913043483" y="118" width="5.634782608695787" height="298" fill="#f5c542" opacity="0.3"></rect><text x="569.8347826086962" y="110" fill="#f5c542" font-size="12" font-family="Inter,Segoe UI,Arial,sans-serif" transform="rotate(-90 569.8347826086962 110)">Euro debt</text><rect x="671.0173913043462" y="118" width="9.860869565219105" height="298" fill="#93a4bb" opacity="0.1"></rect><rect x="653.8782608695685" y="118" width="17.139130434777712" height="298" fill="#93a4bb" opacity="0.3"></rect><text x="666.4478260869573" y="110" fill="#93a4bb" font-size="12" font-family="Inter,Segoe UI,Arial,sans-serif" transform="rotate(-90 666.4478260869573 110)">China</text><rect x="717.7391304347813" y="118" width="12.678260869569726" height="298" fill="#93a4bb" opacity="0.1"></rect><rect x="717.034782608695" y="118" width="2.2" height="298" fill="#93a4bb" opacity="0.3"></rect><text x="721.386956521738" y="110" fill="#93a4bb" font-size="12" font-family="Inter,Segoe UI,Arial,sans-serif" transform="rotate(-90 721.386956521738 110)">Volmageddon</text><rect x="738.4000000000012" y="118" width="7.982608695650242" height="298" fill="#f5c542" opacity="0.1"></rect><rect x="732.2956521739145" y="118" width="6.104347826086723" height="298" fill="#f5c542" opacity="0.3"></rect><text x="739.3478260869579" y="110" fill="#f5c542" font-size="12" font-family="Inter,Segoe UI,Arial,sans-serif" transform="rotate(-90 739.3478260869579 110)">Q4 2018</text><rect x="767.5130434782624" y="118" width="9.626086956523636" height="298" fill="#ff6b6b" opacity="0.1"></rect><rect x="765.4000000000034" y="118" width="2.2" height="298" fill="#ff6b6b" opacity="0.3"></rect><text x="770.4565217391329" y="110" fill="#ff6b6b" font-size="12" font-family="Inter,Segoe UI,Arial,sans-serif" transform="rotate(-90 770.4565217391329 110)">Covid</text><rect x="827.6173913043481" y="118" width="29.817391304347552" height="298" fill="#4aa3ff" opacity="0.1"></rect><rect x="809.5391304347834" y="118" width="18.0782608695647" height="298" fill="#4aa3ff" opacity="0.3"></rect><text x="822.5782608695657" y="110" fill="#4aa3ff" font-size="12" font-family="Inter,Segoe UI,Arial,sans-serif" transform="rotate(-90 822.5782608695657 110)">Rate shock 2022</text><rect x="870.11304347826" y="118" width="3.0521739130459764" height="298" fill="#93a4bb" opacity="0.1"></rect><rect x="868.9391304347828" y="118" width="2.2" height="298" fill="#93a4bb" opacity="0.3"></rect><text x="873.5260869565213" y="110" fill="#93a4bb" font-size="12" font-family="Inter,Segoe UI,Arial,sans-serif" transform="rotate(-90 873.5260869565213 110)">Carry unwind</text><rect x="886.0782608695658" y="118" width="4.930434782609495" height="298" fill="#f5c542" opacity="0.1"></rect><rect x="882.7913043478296" y="118" width="3.286956521736215" height="298" fill="#f5c542" opacity="0.3"></rect><text x="888.4347826086978" y="110" fill="#f5c542" font-size="12" font-family="Inter,Segoe UI,Arial,sans-serif" transform="rotate(-90 888.4347826086978 110)">Tariffs</text><line x1="58" y1="416" x2="922" y2="416" stroke="rgba(255,255,255,.14)" stroke-dasharray="2 5" stroke-width="1"></line><text x="48" y="420" fill="#aebbd0" font-size="13" font-family="Inter,Segoe UI,Arial,sans-serif" text-anchor="end">250</text><line x1="58" y1="358.3589317220533" x2="922" y2="358.3589317220533" stroke="rgba(255,255,255,.14)" stroke-dasharray="2 5" stroke-width="1"></line><text x="48" y="362.3589317220533" fill="#aebbd0" font-size="13" font-family="Inter,Segoe UI,Arial,sans-serif" text-anchor="end">500</text><line x1="58" y1="300.71786344410657" x2="922" y2="300.71786344410657" stroke="rgba(255,255,255,.14)" stroke-dasharray="2 5" stroke-width="1"></line><text x="48" y="304.71786344410657" fill="#aebbd0" font-size="13" font-family="Inter,Segoe UI,Arial,sans-serif" text-anchor="end">1,000</text><line x1="58" y1="243.07679516615988" x2="922" y2="243.07679516615988" stroke="rgba(255,255,255,.14)" stroke-dasharray="2 5" stroke-width="1"></line><text x="48" y="247.07679516615988" fill="#aebbd0" font-size="13" font-family="Inter,Segoe UI,Arial,sans-serif" text-anchor="end">2,000</text><line x1="58" y1="185.43572688821317" x2="922" y2="185.43572688821317" stroke="rgba(255,255,255,.14)" stroke-dasharray="2 5" stroke-width="1"></line><text x="48" y="189.43572688821317" fill="#aebbd0" font-size="13" font-family="Inter,Segoe UI,Arial,sans-serif" text-anchor="end">4,000</text><line x1="58" y1="127.79465861026648" x2="922" y2="127.79465861026648" stroke="rgba(255,255,255,.14)" stroke-dasharray="2 5" stroke-width="1"></line><text x="48" y="131.79465861026648" fill="#aebbd0" font-size="13" font-family="Inter,Segoe UI,Arial,sans-serif" text-anchor="end">8,000</text><line x1="58" y1="416" x2="922" y2="416" stroke="#7f8ea6" stroke-width="1"></line><line x1="58" y1="416" x2="58" y2="421" stroke="#7f8ea6" stroke-width="1"></line><text x="58" y="438" fill="#aebbd0" font-size="13" font-family="Inter,Segoe UI,Arial,sans-serif" text-anchor="middle">1990</text><line x1="151.913043478261" y1="416" x2="151.913043478261" y2="421" stroke="#7f8ea6" stroke-width="1"></line><text x="151.913043478261" y="438" fill="#aebbd0" font-size="13" font-family="Inter,Segoe UI,Arial,sans-serif" text-anchor="middle">1994</text><line x1="245.82608695652198" y1="416" x2="245.82608695652198" y2="421" stroke="#7f8ea6" stroke-width="1"></line><text x="245.82608695652198" y="438" fill="#aebbd0" font-size="13" font-family="Inter,Segoe UI,Arial,sans-serif" text-anchor="middle">1998</text><line x1="339.73913043478296" y1="416" x2="339.73913043478296" y2="421" stroke="#7f8ea6" stroke-width="1"></line><text x="339.73913043478296" y="438" fill="#aebbd0" font-size="13" font-family="Inter,Segoe UI,Arial,sans-serif" text-anchor="middle">2002</text><line x1="433.65217391304395" y1="416" x2="433.65217391304395" y2="421" stroke="#7f8ea6" stroke-width="1"></line><text x="433.65217391304395" y="438" fill="#aebbd0" font-size="13" font-family="Inter,Segoe UI,Arial,sans-serif" text-anchor="middle">2006</text><line x1="527.5652173913049" y1="416" x2="527.5652173913049" y2="421" stroke="#7f8ea6" stroke-width="1"></line><text x="527.5652173913049" y="438" fill="#aebbd0" font-size="13" font-family="Inter,Segoe UI,Arial,sans-serif" text-anchor="middle">2010</text><line x1="621.4782608695659" y1="416" x2="621.4782608695659" y2="421" stroke="#7f8ea6" stroke-width="1"></line><text x="621.4782608695659" y="438" fill="#aebbd0" font-size="13" font-family="Inter,Segoe UI,Arial,sans-serif" text-anchor="middle">2014</text><line x1="715.3913043478269" y1="416" x2="715.3913043478269" y2="421" stroke="#7f8ea6" stroke-width="1"></line><text x="715.3913043478269" y="438" fill="#aebbd0" font-size="13" font-family="Inter,Segoe UI,Arial,sans-serif" text-anchor="middle">2018</text><line x1="809.3043478260879" y1="416" x2="809.3043478260879" y2="421" stroke="#7f8ea6" stroke-width="1"></line><text x="809.3043478260879" y="438" fill="#aebbd0" font-size="13" font-family="Inter,Segoe UI,Arial,sans-serif" text-anchor="middle">2022</text><line x1="903.2173913043489" y1="416" x2="903.2173913043489" y2="421" stroke="#7f8ea6" stroke-width="1"></line><text x="903.2173913043489" y="438" fill="#aebbd0" font-size="13" font-family="Inter,Segoe UI,Arial,sans-serif" text-anchor="middle">2026</text><text x="14" y="267" fill="#7f8ea6" font-size="12" font-family="Inter,Segoe UI,Arial,sans-serif" text-anchor="middle" transform="rotate(-90 14 267)">S&amp;P 500 (log scale)</text><path d="M58.0 387.3 L63.9 390.4 L69.7 386.1 L70.7 383.6 L76.3 402.2 L81.2 392.9 L87.3 382.3 L93.2 383.2 L99.1 379.4 L105.0 373.5 L110.8 376.1 L116.7 375.3 L122.6 373.3 L128.2 369.7 L130.3 369.2 L132.0 368.2 L134.1 366.8 L136.2 369.0 L137.8 366.8 L139.9 366.9 L141.8 367.5 L143.9 364.2 L145.8 365.5 L147.7 363.9 L149.8 364.8 L151.9 364.2 L153.8 361.4 L155.7 363.9 L157.5 367.9 L159.4 366.9 L161.5 365.7 L163.4 368.0 L165.3 365.5 L167.4 362.3 L169.3 364.9 L171.4 362.6 L173.3 366.0 L175.2 366.0 L177.3 363.3 L179.1 360.0 L181.0 358.2 L182.9 355.7 L185.0 352.6 L186.9 351.3 L189.0 348.6 L190.9 348.3 L192.8 345.3 L194.9 345.6 L196.8 342.0 L198.6 341.1 L200.7 338.2 L202.6 338.0 L204.5 336.9 L206.6 336.0 L208.5 334.1 L210.4 333.9 L212.5 337.7 L214.4 336.2 L216.5 332.1 L218.4 329.4 L220.2 323.5 L222.3 326.0 L224.2 321.0 L226.1 320.1 L228.0 324.2 L230.1 319.2 L232.0 314.0 L233.9 311.1 L236.0 304.7 L237.8 309.1 L239.7 305.5 L241.8 307.6 L243.7 304.5 L245.8 303.2 L247.7 302.1 L249.6 296.6 L251.5 292.9 L253.6 291.8 L255.5 293.6 L257.3 290.3 L258.5 286.5 L259.4 291.4 L261.3 304.1 L263.2 299.2 L265.3 292.8 L266.7 286.0 L267.2 288.3 L269.3 283.3 L271.2 280.4 L272.8 283.1 L274.9 279.9 L277.1 276.9 L278.7 278.8 L280.8 274.5 L282.7 277.1 L284.8 277.6 L286.7 279.7 L288.6 274.5 L290.7 273.2 L292.8 268.7 L294.7 273.0 L296.5 274.3 L298.2 265.0 L298.7 266.8 L300.3 269.8 L302.4 271.1 L304.5 269.6 L306.4 271.0 L308.5 265.7 L310.2 270.6 L312.3 271.0 L314.1 277.4 L316.0 278.1 L318.1 274.5 L320.0 282.9 L321.9 287.9 L324.0 281.0 L325.9 281.6 L327.8 283.8 L329.9 284.7 L331.8 289.7 L333.6 297.1 L335.7 296.0 L337.6 289.7 L339.7 289.6 L341.6 290.4 L343.5 291.9 L345.4 289.5 L347.5 294.4 L349.4 294.9 L351.2 301.6 L353.4 308.4 L355.2 307.8 L357.1 317.4 L357.8 321.3 L359.2 310.9 L361.1 305.9 L363.2 311.2 L365.1 313.2 L367.0 314.3 L368.9 314.5 L371.0 307.7 L372.8 303.3 L374.7 302.7 L376.8 301.2 L378.7 299.6 L380.6 300.8 L382.7 296.4 L384.6 295.6 L386.7 291.8 L388.6 290.2 L390.5 289.1 L392.6 290.5 L394.4 292.0 L396.3 290.6 L398.4 289.5 L400.3 292.2 L402.4 292.0 L404.3 291.4 L406.2 290.4 L408.1 287.0 L410.2 284.9 L412.1 286.8 L413.9 285.1 L415.8 287.0 L417.7 288.5 L419.8 285.9 L421.7 286.1 L423.6 283.0 L425.7 283.8 L427.5 283.5 L429.7 285.5 L431.5 281.9 L433.4 282.5 L435.5 280.5 L437.4 280.1 L439.3 279.0 L441.2 277.9 L443.3 280.5 L445.2 280.6 L447.3 280.3 L449.1 278.5 L451.0 276.6 L453.1 274.1 L455.0 272.4 L456.9 271.8 L459.0 270.5 L460.9 272.2 L462.8 271.6 L464.9 267.9 L466.8 264.8 L468.6 266.8 L470.7 269.4 L472.6 268.3 L474.5 265.6 L475.2 263.5 L476.6 264.5 L478.5 267.7 L480.6 269.1 L482.5 274.3 L484.4 276.5 L486.5 277.6 L488.4 273.8 L490.2 272.5 L492.3 280.2 L494.2 281.0 L496.1 279.7 L498.2 288.4 L500.1 303.4 L502.0 309.4 L504.1 309.3 L506.0 316.4 L507.8 325.9 L508.3 332.7 L509.7 319.8 L511.8 311.9 L513.7 307.2 L515.6 307.7 L517.7 301.7 L519.6 298.7 L521.5 296.2 L523.6 297.8 L525.5 292.9 L527.6 291.7 L529.4 294.8 L531.1 292.3 L533.2 287.7 L534.8 284.3 L535.3 286.4 L537.0 293.2 L539.1 298.1 L539.3 298.9 L540.9 292.6 L543.1 296.4 L544.9 289.7 L546.8 286.6 L547.3 284.0 L548.9 286.6 L551.0 281.6 L552.9 279.7 L554.8 276.9 L556.7 277.3 L558.6 274.9 L560.7 275.8 L562.5 277.6 L563.0 275.5 L564.4 279.3 L566.5 284.0 L568.4 290.4 L568.7 292.9 L570.5 281.8 L572.4 282.2 L574.3 281.8 L576.4 278.1 L577.8 274.9 L578.3 274.5 L580.2 272.3 L582.3 272.8 L584.1 277.9 L586.0 275.1 L588.1 274.1 L590.3 272.0 L591.9 270.4 L594.0 271.9 L595.9 271.5 L598.0 271.3 L599.9 267.2 L601.8 266.1 L602.7 263.4 L603.6 263.4 L605.7 261.8 L607.6 259.9 L609.5 261.4 L611.6 257.2 L613.5 259.8 L615.4 257.6 L617.5 253.8 L619.4 251.4 L621.5 249.7 L623.4 252.7 L625.2 249.0 L627.1 248.7 L629.2 248.1 L631.1 246.2 L633.0 244.9 L635.1 246.0 L637.0 242.8 L638.9 244.3 L641.0 242.4 L642.8 240.1 L645.0 240.8 L646.8 243.3 L648.7 238.7 L650.6 240.5 L652.7 239.6 L653.9 237.6 L654.6 238.6 L656.5 240.7 L658.6 238.8 L660.5 244.0 L662.3 246.6 L664.4 239.9 L666.3 239.5 L668.4 241.5 L670.3 245.7 L671.0 250.5 L672.2 245.8 L674.3 240.8 L676.2 240.5 L678.1 239.1 L680.2 239.2 L680.9 237.1 L681.8 236.3 L684.2 236.1 L686.0 236.6 L687.9 238.0 L689.8 235.0 L691.9 233.8 L693.8 232.4 L695.7 229.1 L697.5 229.4 L699.4 228.6 L701.5 227.4 L703.4 227.3 L705.5 225.6 L707.4 225.4 L709.3 224.1 L711.4 222.2 L713.3 219.7 L715.2 219.1 L717.0 213.2 L717.3 214.5 L717.7 222.0 L719.1 217.6 L721.0 220.3 L723.1 219.8 L725.0 217.8 L726.9 217.7 L729.0 214.7 L730.4 212.9 L730.9 212.1 L732.3 211.2 L732.8 212.0 L734.9 217.9 L736.8 216.4 L738.4 229.9 L738.9 224.6 L740.7 218.2 L742.6 215.5 L744.5 214.4 L746.4 211.1 L746.6 211.0 L748.5 216.5 L750.4 211.3 L752.5 210.1 L754.4 211.5 L756.2 210.3 L758.4 208.4 L760.2 205.5 L762.3 203.5 L764.2 203.6 L765.4 199.4 L766.1 210.4 L767.5 234.1 L768.2 222.0 L770.1 212.0 L772.0 208.2 L774.1 207.1 L776.0 202.3 L777.1 199.3 L778.1 196.7 L780.0 200.2 L781.8 202.3 L783.7 193.7 L785.8 191.0 L787.7 191.9 L789.3 189.6 L791.5 186.2 L793.6 181.9 L795.2 181.4 L797.3 179.8 L799.2 177.8 L801.3 175.3 L803.2 179.6 L805.1 174.0 L807.2 174.6 L809.3 171.1 L809.5 170.7 L811.2 175.7 L813.1 178.2 L814.9 175.3 L816.8 183.0 L818.9 182.8 L820.8 190.3 L822.7 183.0 L824.8 186.4 L826.7 194.8 L827.6 195.0 L828.8 188.4 L830.7 183.9 L832.5 189.2 L834.7 184.1 L836.5 186.2 L838.4 183.5 L840.3 182.2 L842.4 181.8 L844.3 176.9 L846.4 174.2 L848.3 175.6 L850.2 179.9 L852.3 181.7 L854.1 174.5 L856.0 171.1 L857.4 169.9 L858.1 169.8 L860.0 165.5 L861.9 163.1 L864.0 166.5 L865.9 162.4 L867.8 159.8 L868.9 156.7 L869.9 158.8 L870.1 164.0 L871.8 156.9 L873.2 155.8 L873.9 155.4 L875.7 156.2 L877.6 151.4 L879.7 153.7 L881.6 151.5 L882.8 149.9 L883.5 152.5 L885.4 157.5 L886.1 167.5 L887.5 158.3 L889.4 153.2 L891.0 149.7 L891.2 149.3 L893.4 147.4 L895.2 145.7 L897.1 143.0 L899.2 141.1 L901.1 140.9 L903.2 141.1 L905.1 139.9 L907.0 140.6 L908.9 145.0 L911.0 136.7 L912.8 132.4 L914.7 133.5 L916.8 133.5 L918.7 131.3 L919.7 132.3" fill="none" stroke="#f4f7fb" stroke-width="1.8" stroke-linejoin="round"></path></svg>