<svg xmlns="http://www.w3.org/2000/svg" viewBox="0 0 940 470" width="940" height="470" role="img" aria-label="S&amp;P 500 change around 19 US midterm elections, 1950-2022"><rect width="940" height="470" fill="#0c1c30"/><text x="54" y="38" fill="#f4f7fb" font-size="19" font-weight="700" font-family="Inter,Segoe UI,Arial,sans-serif">S&amp;P 500 around midterm elections</text><text x="54" y="58" fill="#7f8ea6" font-size="13" font-family="Inter,Segoe UI,Arial,sans-serif">Change one month before / after each vote, 1950-2022</text><line x1="54" x2="916" y1="424.0" y2="424.0" stroke="rgba(255,255,255,0.08)"/><text x="44" y="428.0" text-anchor="end" fill="#7f8ea6" font-size="11" font-family="Inter,Segoe UI,Arial,sans-serif">-16%</text><line x1="54" x2="916" y1="384.0" y2="384.0" stroke="rgba(255,255,255,0.08)"/><text x="44" y="388.0" text-anchor="end" fill="#7f8ea6" font-size="11" font-family="Inter,Segoe UI,Arial,sans-serif">-12%</text><line x1="54" x2="916" y1="344.0" y2="344.0" stroke="rgba(255,255,255,0.08)"/><text x="44" y="348.0" text-anchor="end" fill="#7f8ea6" font-size="11" font-family="Inter,Segoe UI,Arial,sans-serif">-8%</text><line x1="54" x2="916" y1="304.0" y2="304.0" stroke="rgba(255,255,255,0.08)"/><text x="44" y="308.0" text-anchor="end" fill="#7f8ea6" font-size="11" font-family="Inter,Segoe UI,Arial,sans-serif">-4%</text><line x1="54" x2="916" y1="264.0" y2="264.0" stroke="rgba(255,255,255,0.32)"/><text x="44" y="268.0" text-anchor="end" fill="#7f8ea6" font-size="11" font-family="Inter,Segoe UI,Arial,sans-serif">0%</text><line x1="54" x2="916" y1="224.0" y2="224.0" stroke="rgba(255,255,255,0.08)"/><text x="44" y="228.0" text-anchor="end" fill="#7f8ea6" font-size="11" font-family="Inter,Segoe UI,Arial,sans-serif">+4%</text><line x1="54" x2="916" y1="184.0" y2="184.0" stroke="rgba(255,255,255,0.08)"/><text x="44" y="188.0" text-anchor="end" fill="#7f8ea6" font-size="11" font-family="Inter,Segoe UI,Arial,sans-serif">+8%</text><line x1="54" x2="916" y1="144.0" y2="144.0" stroke="rgba(255,255,255,0.08)"/><text x="44" y="148.0" text-anchor="end" fill="#7f8ea6" font-size="11" font-family="Inter,Segoe UI,Arial,sans-serif">+12%</text><line x1="54" x2="916" y1="104.0" y2="104.0" stroke="rgba(255,255,255,0.08)"/><text x="44" y="108.0" text-anchor="end" fill="#7f8ea6" font-size="11" font-family="Inter,Segoe UI,Arial,sans-serif">+16%</text><line x1="54" x2="916" y1="64.0" y2="64.0" stroke="rgba(255,255,255,0.08)"/><text x="44" y="68.0" text-anchor="end" fill="#7f8ea6" font-size="11" font-family="Inter,Segoe UI,Arial,sans-serif">+20%</text><rect x="59.9" y="264.0" width="15.4" height="27.8" rx="2" fill="#4aa3ff"/><rect x="78.0" y="264.0" width="15.4" height="8.2" rx="2" fill="#f5c542"/><rect x="105.3" y="264.0" width="15.4" height="1.2" rx="2" fill="#4aa3ff"/><rect x="123.4" y="200.8" width="15.4" height="63.2" rx="2" fill="#f5c542"/><rect x="150.6" y="245.2" width="15.4" height="18.8" rx="2" fill="#4aa3ff"/><rect x="168.8" y="255.7" width="15.4" height="8.3" rx="2" fill="#f5c542"/><rect x="196.0" y="235.3" width="15.4" height="28.7" rx="2" fill="#4aa3ff"/><rect x="214.2" y="189.9" width="15.4" height="74.1" rx="2" fill="#f5c542"/><rect x="241.4" y="172.1" width="15.4" height="91.9" rx="2" fill="#4aa3ff"/><rect x="259.5" y="254.7" width="15.4" height="9.3" rx="2" fill="#f5c542"/><rect x="286.7" y="264.0" width="15.4" height="26.0" rx="2" fill="#4aa3ff"/><rect x="304.9" y="208.4" width="15.4" height="55.6" rx="2" fill="#f5c542"/><rect x="332.1" y="107.6" width="15.4" height="156.4" rx="2" fill="#4aa3ff"/><rect x="350.3" y="264.0" width="15.4" height="119.6" rx="2" fill="#f5c542"/><rect x="377.5" y="264.0" width="15.4" height="102.7" rx="2" fill="#4aa3ff"/><rect x="395.6" y="229.6" width="15.4" height="34.4" rx="2" fill="#f5c542"/><rect x="422.8" y="132.5" width="15.4" height="131.5" rx="2" fill="#4aa3ff"/><rect x="441.0" y="254.3" width="15.4" height="9.7" rx="2" fill="#f5c542"/><rect x="468.2" y="215.4" width="15.4" height="48.6" rx="2" fill="#4aa3ff"/><rect x="486.4" y="236.2" width="15.4" height="27.8" rx="2" fill="#f5c542"/><rect x="513.6" y="264.0" width="15.4" height="5.9" rx="2" fill="#4aa3ff"/><rect x="531.7" y="208.0" width="15.4" height="56.0" rx="2" fill="#f5c542"/><rect x="559.0" y="249.6" width="15.4" height="14.4" rx="2" fill="#4aa3ff"/><rect x="577.1" y="264.0" width="15.4" height="43.4" rx="2" fill="#f5c542"/><rect x="604.3" y="140.3" width="15.4" height="123.7" rx="2" fill="#4aa3ff"/><rect x="622.5" y="228.6" width="15.4" height="35.4" rx="2" fill="#f5c542"/><rect x="649.7" y="98.3" width="15.4" height="165.7" rx="2" fill="#4aa3ff"/><rect x="667.8" y="264.0" width="15.4" height="9.7" rx="2" fill="#f5c542"/><rect x="695.1" y="240.2" width="15.4" height="23.8" rx="2" fill="#4aa3ff"/><rect x="713.2" y="246.3" width="15.4" height="17.7" rx="2" fill="#f5c542"/><rect x="740.4" y="214.3" width="15.4" height="49.7" rx="2" fill="#4aa3ff"/><rect x="758.6" y="240.6" width="15.4" height="23.4" rx="2" fill="#f5c542"/><rect x="785.8" y="239.9" width="15.4" height="24.1" rx="2" fill="#4aa3ff"/><rect x="803.9" y="234.3" width="15.4" height="29.7" rx="2" fill="#f5c542"/><rect x="831.2" y="264.0" width="15.4" height="44.7" rx="2" fill="#4aa3ff"/><rect x="849.3" y="264.0" width="15.4" height="44.4" rx="2" fill="#f5c542"/><rect x="876.5" y="204.3" width="15.4" height="59.7" rx="2" fill="#4aa3ff"/><rect x="894.7" y="228.6" width="15.4" height="35.4" rx="2" fill="#f5c542"/><circle cx="62" cy="454" r="6" fill="#4aa3ff"/><text x="74" y="459" fill="#aebbd0" font-size="12" font-family="Inter,Segoe UI,Arial,sans-serif">month before</text><circle cx="204" cy="454" r="6" fill="#f5c542"/><text x="216" y="459" fill="#aebbd0" font-size="12" font-family="Inter,Segoe UI,Arial,sans-serif">month after</text></svg>